<svg xmlns="http://www.w3.org/2000/svg" width="420" height="260" viewBox="0 0 420 260">
  <title>Molecular Navigation Manifolds (Stylized)</title>
  <defs>
    <pattern id="diag1" patternUnits="userSpaceOnUse" width="6" height="6">
      <path d="M0,6 L6,0" stroke="black" stroke-width="0.6"/>
    </pattern>
    <pattern id="diag2" patternUnits="userSpaceOnUse" width="6" height="6">
      <path d="M0,0 L6,6" stroke="black" stroke-width="0.6"/>
    </pattern>
  </defs>
  <!-- Axes -->
  <line x1="70" y1="210" x2="360" y2="210" stroke="black"/>
  <line x1="70" y1="210" x2="70" y2="40" stroke="black"/>
  <line x1="70" y1="210" x2="140" y2="250" stroke="black"/>
  <text x="365" y="212" font-size="11">S_k</text>
  <text x="65" y="35" font-size="11">S_t</text>
  <text x="145" y="255" font-size="11">S_e</text>

  <!-- Surfaces (stylized polygons with patterns) -->
  <polygon points="80,200 140,170 210,160 290,158 340,156 340,166 290,170 210,178 140,190 80,205"
           stroke="black" fill="url(#diag1)" opacity="0.85"/>
  <polygon points="80,200 140,180 210,175 290,174 340,173 340,185 290,188 210,192 140,198 80,205"
           stroke="black" fill="url(#diag2)" opacity="0.85"/>

  <!-- Navigation paths -->
  <polyline points="90,198 150,185 215,182 275,180 325,179"
            stroke="black" fill="none" stroke-dasharray="4 2"/>
  <polyline points="95,202 160,195 225,190 285,188 330,187"
            stroke="black" fill="none" stroke-width="1.2"/>

  <text x="250" y="183" font-size="9">Trajectory 1</text>
  <text x="250" y="194" font-size="9">Trajectory 2</text>

  <text x="260" y="80" font-size="10">Hatched Surfaces: Molecular Families</text>
</svg>
