<svg xmlns="http://www.w3.org/2000/svg" width="560" height="250" viewBox="0 0 560 250">
  <title>Mufakose Search Algorithm</title>
  <defs>
    <marker id="arM" markerWidth="8" markerHeight="8" refX="6" refY="4" orient="auto">
      <path d="M0,0 L8,4 L0,8 z" fill="black"/>
    </marker>
  </defs>
  <!-- Search space grid -->
  <rect x="20" y="20" width="200" height="200" stroke="black" fill="none"/>
  <text x="120" y="15" font-size="11" text-anchor="middle">Implicit Molecular Space</text>
  <!-- Points -->
  <circle cx="60" cy="70" r="4" stroke="black" fill="white"/>
  <circle cx="90" cy="100" r="4" stroke="black" fill="white"/>
  <circle cx="150" cy="140" r="4" stroke="black" fill="white"/>
  <circle cx="170" cy="90" r="4" stroke="black" fill="white"/>
  <circle cx="110" cy="160" r="4" stroke="black" fill="white"/>

  <!-- Path -->
  <polyline points="60,70 90,100 170,90 150,140 110,160" stroke="black" fill="none" stroke-dasharray="4 2"/>
  <text x="155" y="102" font-size="9">Adaptive Path</text>

  <!-- Transformation -->
  <rect x="250" y="90" width="120" height="60" stroke="black" fill="none" stroke-dasharray="5 3"/>
  <text x="310" y="115" font-size="10" text-anchor="middle">Confirmation Engine</text>
  <line x1="220" y1="120" x2="250" y2="120" stroke="black" marker-end="url(#arM)"/>

  <!-- Output -->
  <rect x="410" y="90" width="120" height="60" stroke="black" fill="white"/>
  <text x="470" y="115" font-size="10" text-anchor="middle">Molecular ID</text>
  <line x1="370" y1="120" x2="410" y2="120" stroke="black" marker-end="url(#arM)"/>

  <!-- O(log N) label -->
  <text x="470" y="170" font-size="10" text-anchor="middle">Complexity: O(log N)</text>
</svg>
