<svg xmlns="http://www.w3.org/2000/svg" width="520" height="250" viewBox="0 0 520 250">
  <title>Mathematical Necessity of Oscillatory Reality</title>
  <defs>
    <marker id="arrow" markerWidth="8" markerHeight="8" refX="6" refY="4" orient="auto">
      <path d="M0,0 L8,4 L0,8 z" fill="black"/>
    </marker>
  </defs>
  <circle cx="120" cy="125" r="55" stroke="black" fill="none"/>
  <text x="120" y="110" text-anchor="middle" font-size="12">Self-Consistent</text>
  <text x="120" y="125" text-anchor="middle" font-size="12">Structure ℳ</text>

  <rect x="10" y="20" width="150" height="35" fill="white" stroke="black"/>
  <text x="85" y="42" text-anchor="middle" font-size="11">Completeness</text>
  <rect x="10" y="200" width="150" height="35" fill="white" stroke="black"/>
  <text x="85" y="222" text-anchor="middle" font-size="11">Consistency</text>
  <rect x="10" y="90" width="150" height="35" fill="white" stroke="black"/>
  <text x="85" y="112" text-anchor="middle" font-size="11">Self-Reference</text>

  <line x1="85" y1="55" x2="120" y2="90" stroke="black" marker-end="url(#arrow)"/>
  <line x1="85" y1="125" x2="120" y2="125" stroke="black" marker-end="url(#arrow)"/>
  <line x1="85" y1="200" x2="120" y2="160" stroke="black" marker-end="url(#arrow)"/>

  <circle cx="400" cy="125" r="60" stroke="black" fill="none" stroke-dasharray="5 3"/>
  <text x="400" y="113" text-anchor="middle" font-size="12">Oscillatory</text>
  <text x="400" y="128" text-anchor="middle" font-size="12">Manifestation</text>
  <text x="400" y="143" text-anchor="middle" font-size="12">(Physical Reality)</text>

  <line x1="175" y1="125" x2="340" y2="125" stroke="black" marker-end="url(#arrow)"/>
  <text x="255" y="115" text-anchor="middle" font-size="11">Mathematical Necessity</text>
</svg>
