<svg xmlns="http://www.w3.org/2000/svg" width="520" height="200" viewBox="0 0 520 200">
  <title>Self-Sustaining Oscillatory Loop</title>
  <defs>
    <marker id="arrow" markerWidth="8" markerHeight="8" refX="6" refY="4" orient="auto">
      <path d="M0,0 L8,4 L0,8 z" fill="black"/>
    </marker>
  </defs>
  <circle cx="260" cy="100" r="85" stroke="black" fill="none" stroke-dasharray="6 3"/>
  <text x="260" y="20" font-size="11" text-anchor="middle">Closed Feedback Loop</text>

  <rect x="205" y="20" width="110" height="35" fill="white" stroke="black"/>
  <text x="260" y="42" font-size="11" text-anchor="middle">Mathematics</text>

  <rect x="360" y="85" width="120" height="35" fill="white" stroke="black"/>
  <text x="420" y="107" font-size="11" text-anchor="middle">Physical Laws</text>

  <rect x="205" y="150" width="110" height="35" fill="white" stroke="black"/>
  <text x="260" y="172" font-size="11" text-anchor="middle">Observations</text>

  <rect x="40" y="85" width="120" height="35" fill="white" stroke="black"/>
  <text x="100" y="107" font-size="11" text-anchor="middle">Consciousness</text>

  <path d="M260 55 C350 60 380 70 420 85" stroke="black" fill="none" marker-end="url(#arrow)"/>
  <path d="M420 120 C400 140 330 155 260 150" stroke="black" fill="none" marker-end="url(#arrow)"/>
  <path d="M260 150 C180 145 140 130 100 120" stroke="black" fill="none" marker-end="url(#arrow)"/>
  <path d="M100 85 C150 70 200 60 260 55" stroke="black" fill="none" marker-end="url(#arrow)"/>
  <text x="318" y="63" font-size="9">Formalization</text>
  <text x="350" y="140" font-size="9">Empirical Constraint</text>
  <text x="180" y="140" font-size="9">Interpretation</text>
  <text x="165" y="70" font-size="9">Abstraction</text>
</svg>
